<svg xmlns="http://www.w3.org/2000/svg" viewBox="0 0 800 560" width="800" height="560">
<defs>
<linearGradient id="g2" x1="0" y1="0" x2="1" y2="1"><stop offset="0%" stop-color="#5A7A4A"/><stop offset="100%" stop-color="#3A5A2A"/></linearGradient>
</defs>
<rect width="800" height="560" fill="white"/>
<rect x="6" y="6" width="788" height="548" rx="4" fill="none" stroke="#8B7355" stroke-width="2"/>
<ellipse cx="22" cy="120" rx="10" ry="18" fill="none" stroke="#5A7A4A" stroke-width="1" opacity="0.4" transform="rotate(-15 22 120)"/>
<ellipse cx="22" cy="190" rx="10" ry="18" fill="none" stroke="#5A7A4A" stroke-width="1" opacity="0.4" transform="rotate(-7 22 190)"/>
<ellipse cx="22" cy="260" rx="10" ry="18" fill="none" stroke="#5A7A4A" stroke-width="1" opacity="0.4" transform="rotate(1 22 260)"/>
<ellipse cx="22" cy="330" rx="10" ry="18" fill="none" stroke="#5A7A4A" stroke-width="1" opacity="0.4" transform="rotate(9 22 330)"/>
<ellipse cx="22" cy="400" rx="10" ry="18" fill="none" stroke="#5A7A4A" stroke-width="1" opacity="0.4" transform="rotate(17 22 400)"/>
<line x1="22" y1="100" x2="22" y2="460" stroke="#5A7A4A" stroke-width="1" opacity="0.3"/>
<ellipse cx="778" cy="120" rx="10" ry="18" fill="none" stroke="#5A7A4A" stroke-width="1" opacity="0.4" transform="rotate(15 778 120)"/>
<ellipse cx="778" cy="190" rx="10" ry="18" fill="none" stroke="#5A7A4A" stroke-width="1" opacity="0.4" transform="rotate(7 778 190)"/>
<ellipse cx="778" cy="260" rx="10" ry="18" fill="none" stroke="#5A7A4A" stroke-width="1" opacity="0.4" transform="rotate(-1 778 260)"/>
<ellipse cx="778" cy="330" rx="10" ry="18" fill="none" stroke="#5A7A4A" stroke-width="1" opacity="0.4" transform="rotate(-9 778 330)"/>
<ellipse cx="778" cy="400" rx="10" ry="18" fill="none" stroke="#5A7A4A" stroke-width="1" opacity="0.4" transform="rotate(-17 778 400)"/>
</svg>