<svg xmlns="http://www.w3.org/2000/svg" viewBox="0 0 800 560" width="800" height="560">
<defs>
<linearGradient id="g4" x1="0" y1="0" x2="1" y2="1"><stop offset="0%" stop-color="#B8860B"/><stop offset="100%" stop-color="#DAA520"/></linearGradient>
</defs>
<rect width="800" height="560" fill="white"/>
<rect x="10" y="10" width="780" height="540" rx="0" fill="none" stroke="url(#g4)" stroke-width="3"/>
<line x1="40" y1="180" x2="40" y2="380" stroke="#B8860B" stroke-width="2"/>
<line x1="20" y1="250" x2="60" y2="250" stroke="#B8860B" stroke-width="2"/>
<ellipse cx="55" cy="320" rx="8" ry="12" fill="#DAA520" opacity="0.15" transform="rotate(0 55 320)"/>
<ellipse cx="51" cy="331" rx="8" ry="12" fill="#DAA520" opacity="0.15" transform="rotate(45 51 331)"/>
<ellipse cx="40" cy="335" rx="8" ry="12" fill="#DAA520" opacity="0.15" transform="rotate(90 40 335)"/>
<ellipse cx="29" cy="331" rx="8" ry="12" fill="#DAA520" opacity="0.15" transform="rotate(135 29 331)"/>
<ellipse cx="25" cy="320" rx="8" ry="12" fill="#DAA520" opacity="0.15" transform="rotate(180 25 320)"/>
<ellipse cx="29" cy="309" rx="8" ry="12" fill="#DAA520" opacity="0.15" transform="rotate(225 29 309)"/>
<ellipse cx="40" cy="305" rx="8" ry="12" fill="#DAA520" opacity="0.15" transform="rotate(270 40 305)"/>
<ellipse cx="51" cy="309" rx="8" ry="12" fill="#DAA520" opacity="0.15" transform="rotate(315 51 309)"/>
<circle cx="40" cy="320" r="5" fill="#DAA520" opacity="0.3"/>
</svg>