<svg xmlns="http://www.w3.org/2000/svg" viewBox="0 0 800 560" width="800" height="560">
<defs>
<linearGradient id="g5" x1="0" y1="0" x2="1" y2="1"><stop offset="0%" stop-color="#9B7B3B"/><stop offset="100%" stop-color="#C9A96E"/></linearGradient>
</defs>
<rect width="800" height="560" fill="white"/>
<rect x="15" y="15" width="770" height="530" fill="none" stroke="url(#g5)" stroke-width="2.5" rx="3"/>
<rect x="20" y="20" width="760" height="520" fill="none" stroke="url(#g5)" stroke-width="0.5" rx="2"/>
<path d="M30,30 c25,0 25,10 25,25" fill="none" stroke="#C9A96E" stroke-width="1.2"/>
<path d="M30,30 c0,25 10,25 25,25" fill="none" stroke="#C9A96E" stroke-width="1.2"/>
<circle cx="35" cy="35" r="2" fill="#C9A96E"/>
<path d="M770,30 c-25,0 -25,10 -25,25" fill="none" stroke="#C9A96E" stroke-width="1.2"/>
<path d="M770,30 c0,25 -10,25 -25,25" fill="none" stroke="#C9A96E" stroke-width="1.2"/>
<circle cx="765" cy="35" r="2" fill="#C9A96E"/>
<path d="M30,530 c25,0 25,-10 25,-25" fill="none" stroke="#C9A96E" stroke-width="1.2"/>
<path d="M30,530 c0,-25 10,-25 25,-25" fill="none" stroke="#C9A96E" stroke-width="1.2"/>
<circle cx="35" cy="525" r="2" fill="#C9A96E"/>
<path d="M770,530 c-25,0 -25,-10 -25,-25" fill="none" stroke="#C9A96E" stroke-width="1.2"/>
<path d="M770,530 c0,-25 -10,-25 -25,-25" fill="none" stroke="#C9A96E" stroke-width="1.2"/>
<circle cx="765" cy="525" r="2" fill="#C9A96E"/>
<path d="M370,538 c10,-8 20,-8 30,0 c10,8 20,8 30,0" fill="none" stroke="#C9A96E" stroke-width="1"/>
<line x1="400" y1="22" x2="400" y2="45" stroke="#9B7B3B" stroke-width="1.5"/>
<line x1="392" y1="30" x2="408" y2="30" stroke="#9B7B3B" stroke-width="1.5"/>
<ellipse cx="400" cy="33" rx="14" ry="14" fill="none" stroke="#C9A96E" stroke-width="0.8"/>
</svg>