<svg xmlns="http://www.w3.org/2000/svg" viewBox="0 0 800 560" width="800" height="560">
<defs>
</defs>
<rect width="800" height="560" fill="white"/>
<rect x="8" y="8" width="784" height="544" rx="6" fill="none" stroke="#8B7355" stroke-width="1.5"/>
<circle cx="35" cy="35" r="7" fill="#F5E6D3" stroke="#D4C4A8" stroke-width="0.5"/>
<circle cx="35" cy="35" r="2.5" fill="#E8D5B8"/>
<circle cx="50" cy="30" r="7" fill="#F5E6D3" stroke="#D4C4A8" stroke-width="0.5"/>
<circle cx="50" cy="30" r="2.5" fill="#E8D5B8"/>
<circle cx="30" cy="50" r="7" fill="#F5E6D3" stroke="#D4C4A8" stroke-width="0.5"/>
<circle cx="30" cy="50" r="2.5" fill="#E8D5B8"/>
<circle cx="55" cy="45" r="7" fill="#F5E6D3" stroke="#D4C4A8" stroke-width="0.5"/>
<circle cx="55" cy="45" r="2.5" fill="#E8D5B8"/>
<ellipse cx="20" cy="50" rx="12" ry="5" fill="#8BAE8A" opacity="0.3" transform="rotate(-40 20 50)"/>
<ellipse cx="55" cy="20" rx="12" ry="5" fill="#8BAE8A" opacity="0.3" transform="rotate(30 55 20)"/>
<circle cx="765" cy="525" r="7" fill="#F5E6D3" stroke="#D4C4A8" stroke-width="0.5"/>
<circle cx="765" cy="525" r="2.5" fill="#E8D5B8"/>
<circle cx="750" cy="530" r="7" fill="#F5E6D3" stroke="#D4C4A8" stroke-width="0.5"/>
<circle cx="750" cy="530" r="2.5" fill="#E8D5B8"/>
<circle cx="770" cy="510" r="7" fill="#F5E6D3" stroke="#D4C4A8" stroke-width="0.5"/>
<circle cx="770" cy="510" r="2.5" fill="#E8D5B8"/>
<circle cx="745" cy="515" r="7" fill="#F5E6D3" stroke="#D4C4A8" stroke-width="0.5"/>
<circle cx="745" cy="515" r="2.5" fill="#E8D5B8"/>
<ellipse cx="780" cy="510" rx="12" ry="5" fill="#8BAE8A" opacity="0.3" transform="rotate(140 780 510)"/>
</svg>